# xmcd
#
# Track frame offsets:
#	150
#	18518
#	36734
#	50111
#	51076
#	69172
#	86370
#	102830
#	117729
#	133420
#	142679
#	144213
#	159578
#	176919
#
# Disc length: 2530 seconds
# Revision: 0
# Processed by: cddbd v1.5.2PL0 Copyright (c) Steve Scherf et al.
# Submitted via: dBpowerAMP V12.0
#
DISCID=cb09e00e
DTITLE=Amanda Shaw - Good Southern Girl
DYEAR=2010
DGENRE=Country
TTITLE0=Good Southern Girl 
TTITLE1=Mississippi Kid 
TTITLE2=Cruise 
TTITLE3=Intro Segment - Perridon Two-Step
TTITLE4=Johnny Can't Dance
TTITLE5=Sweet Honey
TTITLE6=That's It I Quit
TTITLE7=One Night Stand
TTITLE8=The Meek Maids Reel
TTITLE9=What Time You Comin' Home
TTITLE10=Creole Reel
TTITLE11=Git Fiddler
TTITLE12=Blues de La Frontier
TTITLE13=Yes Yes Girl
EXTD=
EXTT0=
EXTT1=
EXTT2=
EXTT3=
EXTT4=
EXTT5=
EXTT6=
EXTT7=
EXTT8=
EXTT9=
EXTT10=
EXTT11=
EXTT12=
EXTT13=
PLAYORDER=
